<svg xmlns="http://www.w3.org/2000/svg" viewBox="0 0 100 100">
  <defs>
    <clipPath id="coin">
      <circle cx="50" cy="50" r="50"/>
    </clipPath>
    <clipPath id="btc-clip">
      <rect x="0" y="0" width="50" height="100"/>
    </clipPath>
    <clipPath id="kas-clip">
      <rect x="50" y="0" width="50" height="100"/>
    </clipPath>
  </defs>

  <g clip-path="url(#coin)">
    <!-- Solid background halves -->
    <rect x="0" y="0" width="50" height="100" fill="#F7931A"/>
    <rect x="50" y="0" width="50" height="100" fill="#49EACB"/>

    <!-- Bitcoin ₿ symbol (white), centered at (25, 50).
         Original path is in a 4091×4091 space with ₿ center ≈ (2050, 2050).
         Transform: translate(-11.1, 13.9) scale(0.0176) places ₿ center at (25, 50). -->
    <g clip-path="url(#btc-clip)">
      <g transform="translate(-11.1, 13.9) scale(0.0176)">
        <path fill="white" d="M2947.77 1754.38c40.72,-272.26 -166.56,-418.61 -450,-516.24l91.95 -368.8 -224.5 -55.94 -89.51 359.09c-59.02,-14.72 -119.63,-28.59 -179.87,-42.34l90.16 -361.46 -224.36 -55.94 -92 368.68c-48.84,-11.12 -96.81,-22.11 -143.35,-33.69l0.26 -1.16 -309.59 -77.31 -59.72 239.78c0,0 166.56,38.18 163.05,40.53 90.91,22.69 107.35,82.87 104.62,130.57l-104.74 420.15c6.26,1.59 14.38,3.89 23.34,7.49 -7.49,-1.86 -15.46,-3.89 -23.73,-5.87l-146.81 588.57c-11.11,27.62 -39.31,69.07 -102.87,53.33 2.25,3.26 -163.17,-40.72 -163.17,-40.72l-111.46 256.98 292.15 72.83c54.35,13.63 107.61,27.89 160.06,41.3l-92.9 373.03 224.24 55.94 92 -369.07c61.26,16.63 120.71,31.97 178.91,46.43l-91.69 367.33 224.51 55.94 92.89 -372.33c382.82,72.45 670.67,43.24 791.83,-303.02 97.63,-278.78 -4.86,-439.58 -206.26,-544.44 146.69,-33.83 257.18,-130.31 286.64,-329.61zm-512.93 719.26c-69.38,278.78 -538.76,128.08 -690.94,90.29l123.28 -494.2c152.17,37.99 640.17,113.17 567.67,403.91zm69.43 -723.3c-63.29,253.58 -453.96,124.75 -580.69,93.16l111.77 -448.21c126.73,31.59 534.85,90.55 468.94,355.05z"/>
      </g>
    </g>

    <!-- Kaspa arrow (white), centered at (75, 50).
         Original polygon in viewBox "58 28 78 78" with arrow center ≈ (93.9, 66.6).
         Transform: translate(-11.2, -11.1) scale(0.918) places arrow center at (75, 50). -->
    <g clip-path="url(#kas-clip)">
      <g transform="translate(-11.2, -11.1) scale(0.918)">
        <polygon fill="white" points="98.08,87.16 106.18,88.36 109.4,66.58 106.18,44.79 98.08,45.99 100.39,61.66 83.44,48.61 78.45,55.12 93.32,66.58 78.45,78.03 83.44,84.55 100.39,71.49"/>
      </g>
    </g>

    <!-- Subtle center divider -->
    <rect x="49.5" y="0" width="1" height="100" fill="rgba(255,255,255,0.35)"/>
  </g>
</svg>
